<!-- Generated by IcoMoon.io -->
<svg version="1.1" xmlns="http://www.w3.org/2000/svg" width="32" height="32" viewBox="0 0 32 32">
<title>instagram</title>
<path fill="#c40b0b" d="M21.376 4h-10.753c-3.656 0.005-6.618 2.967-6.623 6.622v10.755c0.005 3.656 2.967 6.618 6.622 6.623h10.755c3.656-0.005 6.618-2.967 6.623-6.622v-10.755c-0.005-3.656-2.968-6.619-6.624-6.623h-0zM25.871 21.377c-0.003 2.48-2.013 4.49-4.493 4.493h-10.755c-2.48-0.003-4.49-2.013-4.493-4.493v-10.755c0.003-2.48 2.013-4.49 4.493-4.493h10.755c2.48 0.003 4.49 2.013 4.493 4.493v10.755z"></path>
<path fill="#c40b0b" d="M16 9.816c-3.414 0.004-6.18 2.77-6.184 6.184v0c0.004 3.414 2.77 6.18 6.184 6.184h0c3.414-0.004 6.18-2.77 6.184-6.184v-0c-0.004-3.414-2.77-6.18-6.184-6.184h-0zM16 20.055c-2.238-0.002-4.052-1.816-4.055-4.053v-0c0.002-2.239 1.816-4.054 4.054-4.057h0c2.239 0.003 4.052 1.817 4.055 4.056v0c-0.002 2.238-1.816 4.052-4.054 4.055h-0zM22.444 8.011c-0.861 0.004-1.558 0.701-1.561 1.561v0c0 0.411 0.167 0.813 0.457 1.104s0.693 0.457 1.104 0.457c0.411 0 0.813-0.167 1.104-0.457 0.281-0.283 0.455-0.674 0.455-1.105s-0.174-0.821-0.455-1.105l0 0c-0.283-0.281-0.673-0.456-1.104-0.456h-0z"></path>
</svg>
