<!-- Generated by IcoMoon.io -->
<svg version="1.1" xmlns="http://www.w3.org/2000/svg" width="136" height="32" viewBox="0 0 136 32">
<title>Logo</title>
<path fill="#fff" d="M39.33 9.015h3.43v14.313h-3.43v-14.314zM44.121 17.924c0-3.54 2.104-5.652 5.351-5.652s5.351 2.112 5.351 5.652-2.058 5.663-5.351 5.663c-3.293 0-5.351-2.064-5.351-5.663zM51.381 17.924c0-1.947-0.743-3.091-1.909-3.091s-1.898 1.179-1.898 3.091c0 1.911 0.72 3.067 1.898 3.067s1.909-1.085 1.909-3.056v-0.012zM56.115 24.024h3.294c0.156 0.359 0.421 0.656 0.755 0.848s0.718 0.266 1.097 0.214c1.303 0 1.989-0.731 1.989-1.794v-1.982h-0.069c-0.278 0.612-0.715 1.11-1.26 1.454l-0.014 0.008c-0.475 0.3-1.054 0.479-1.674 0.479-0.061 0-0.122-0.002-0.182-0.005l0.008 0c-2.504 0-4.162-1.971-4.162-5.357 0-3.387 1.578-5.522 4.207-5.522 0.038-0.002 0.082-0.002 0.127-0.002 0.658 0 1.27 0.198 1.778 0.538l-0.012-0.007c0.563 0.377 0.999 0.904 1.255 1.525l0.008 0.022v-1.97h3.43v10.737c0 2.583-2.206 4.188-5.465 4.188-3.030 0-4.917-1.404-5.111-3.362v-0.012zM63.261 17.912c0-1.723-0.766-2.808-1.978-2.808s-1.955 1.074-1.955 2.808 0.731 2.714 1.955 2.714c1.223 0 1.978-0.956 1.978-2.702v-0.012zM67.983 17.912c0-3.54 2.104-5.652 5.351-5.652s5.363 2.112 5.363 5.651c0 3.54-2.058 5.664-5.362 5.664s-5.352-2.053-5.352-5.651v-0.012zM75.244 17.912c0-1.947-0.744-3.091-1.91-3.091s-1.84 1.191-1.84 3.114c0 1.923 0.72 3.067 1.886 3.067s1.864-1.097 1.864-3.067v-0.023zM80 9.9c-0-0.015-0.001-0.032-0.001-0.049 0-0.356 0.101-0.689 0.275-0.971l-0.005 0.008c0.185-0.302 0.453-0.541 0.77-0.685 0.208-0.098 0.452-0.155 0.709-0.155 0.106 0 0.21 0.010 0.311 0.028l-0.010-0.002c0.342 0.061 0.658 0.226 0.908 0.473s0.425 0.565 0.499 0.913c0.076 0.35 0.048 0.713-0.077 1.047-0.129 0.338-0.346 0.619-0.623 0.821l-0.005 0.004c-0.268 0.196-0.603 0.317-0.965 0.325l-0.002 0c-0.034 0.003-0.074 0.004-0.114 0.004-0.202 0-0.396-0.037-0.574-0.104l0.011 0.004c-0.227-0.085-0.421-0.211-0.583-0.369l0 0c-0.164-0.16-0.297-0.352-0.387-0.566l-0.004-0.011c-0.084-0.199-0.134-0.43-0.134-0.673 0-0.007 0-0.014 0-0.021v0.001-0.023zM80 12.496h3.43v10.832h-3.43v-10.832zM95.881 17.912c0 3.54-1.521 5.557-4.128 5.557-0.062 0.004-0.135 0.007-0.208 0.007-0.63 0-1.217-0.183-1.711-0.498l0.013 0.008c-0.573-0.365-1.020-0.885-1.287-1.5l-0.008-0.022h-0.069v5.332h-3.43v-14.323h3.43v1.935h0.069c0.263-0.65 0.701-1.182 1.257-1.554l0.012-0.008c0.497-0.332 1.108-0.53 1.766-0.53 0.050 0 0.1 0.001 0.15 0.003l-0.007-0c2.629 0.047 4.196 2.076 4.196 5.616l-0.045-0.023zM92.451 17.912c0-1.723-0.766-2.82-1.967-2.82s-1.966 1.108-1.978 2.82c-0.012 1.711 0.777 2.808 1.978 2.808s1.967-1.074 1.967-2.785v-0.023zM101.769 12.249c2.847 0 4.574 1.392 4.653 3.621h-3.121c0-0.766-0.617-1.25-1.566-1.25s-1.372 0.378-1.372 0.932 0.378 0.732 1.143 0.898l2.195 0.46c2.093 0.46 2.984 1.333 2.984 2.974 0 2.242-1.978 3.681-4.894 3.681s-4.825-1.439-4.973-3.646h3.305c0.102 0.802 0.72 1.275 1.726 1.275s1.463-0.343 1.463-0.909c0-0.566-0.32-0.684-1.143-0.861l-1.978-0.437c-2.047-0.436-3.122-1.557-3.122-3.209 0.023-2.124 1.864-3.504 4.699-3.504v-0.023zM118.131 23.304h-3.304v-2.018h-0.069c-0.187 0.691-0.589 1.269-1.128 1.675l-0.008 0.006c-0.48 0.361-1.087 0.578-1.744 0.578-0.057 0-0.114-0.002-0.17-0.005l0.008 0c-0.062 0.004-0.134 0.006-0.207 0.006-0.476 0-0.931-0.094-1.346-0.264l0.024 0.009c-0.507-0.207-0.937-0.507-1.289-0.88l-0.002-0.002c-0.355-0.376-0.635-0.828-0.812-1.328l-0.008-0.026c-0.136-0.378-0.214-0.815-0.214-1.269 0-0.111 0.005-0.221 0.014-0.329l-0.001 0.014v-6.996h3.43v6.182c0 1.286 0.64 1.971 1.703 1.971 0.25 0 0.496-0.055 0.724-0.16s0.43-0.261 0.595-0.454c0.165-0.193 0.287-0.42 0.36-0.667s0.093-0.506 0.060-0.761v-6.111h3.43l-0.046 10.831zM119.789 12.473h3.316v2.089h0.069c0.188-0.682 0.58-1.256 1.107-1.665l0.007-0.005c0.497-0.386 1.13-0.619 1.817-0.619 0.019 0 0.037 0 0.056 0.001l-0.003-0c0.065-0.006 0.14-0.009 0.216-0.009 0.642 0 1.232 0.227 1.693 0.604l-0.005-0.004c0.53 0.435 0.898 1.050 1.009 1.752l0.002 0.016h0.069c0.213-0.72 0.643-1.32 1.212-1.743l0.009-0.006c0.516-0.383 1.165-0.613 1.868-0.613 0.048 0 0.095 0.001 0.142 0.003l-0.007-0c0.033-0.001 0.073-0.002 0.112-0.002 0.452 0 0.882 0.093 1.272 0.26l-0.021-0.008c0.45 0.192 0.832 0.463 1.145 0.8l0.002 0.002c0.323 0.347 0.572 0.761 0.731 1.214 0.125 0.348 0.198 0.749 0.198 1.167 0 0.088-0.003 0.174-0.009 0.26l0.001-0.012v7.375h-3.43v-6.431c0-1.179-0.514-1.722-1.475-1.722-0.004-0-0.009-0-0.014-0-0.221 0-0.43 0.049-0.617 0.136l0.009-0.004c-0.202 0.095-0.373 0.226-0.51 0.386l-0.002 0.002c-0.138 0.16-0.244 0.351-0.308 0.561l-0.003 0.011c-0.042 0.136-0.066 0.291-0.066 0.453 0 0.071 0.005 0.14 0.014 0.209l-0.001-0.008v6.407h-3.259v-6.478c0-1.085-0.514-1.675-1.453-1.675-0.216 0-0.43 0.047-0.628 0.139s-0.374 0.226-0.517 0.393c-0.139 0.162-0.248 0.355-0.313 0.566l-0.003 0.011c-0.044 0.141-0.069 0.304-0.069 0.472 0 0.066 0.004 0.132 0.012 0.196l-0.001-0.008v6.384h-3.43l0.058-10.855z"></path>
<path fill="#c40b0b" d="M29.737 9.665c-0.622-1.452-1.39-2.705-2.309-3.827l0.022 0.028c-1.366-1.721-3.051-3.125-4.974-4.138l-0.085-0.041c-1.822-0.962-3.967-1.569-6.243-1.671l-0.033-0.001c-2.182-0.094-4.359 0.289-6.387 1.126-2.111 0.887-3.904 2.149-5.373 3.718l-0.008 0.009c-1.479 1.58-2.647 3.471-3.394 5.563l-0.035 0.112c-0.583 1.615-0.92 3.479-0.92 5.421 0 0.424 0.016 0.844 0.048 1.26l-0.003-0.055c0.177 2.372 0.835 4.555 1.875 6.503l-0.043-0.088c1.070 2.013 2.485 3.704 4.184 5.053l0.033 0.025c1.053 0.852 2.26 1.577 3.561 2.122l0.098 0.036c1.84 0.778 3.809 1.179 5.797 1.18 4.104-0.009 8.037-1.698 10.936-4.695s4.53-7.058 4.533-11.293c0-0.009 0-0.019 0-0.030 0-2.282-0.471-4.453-1.32-6.423l0.040 0.105zM15.537 3.258c1.785 0 3.549 0.403 5.168 1.18-0.357 0.164-0.772 0.292-1.206 0.362l-0.028 0.004c-1.462 0.227-2.734 0.915-3.692 1.908l-0.002 0.002c-0.973 1.008-1.64 2.318-1.847 3.775l-0.004 0.036c-0.092 0.837-0.461 1.575-1.010 2.133l0-0c-0.54 0.548-1.266 0.913-2.075 0.993l-0.014 0.001c-1.463 0.228-2.734 0.916-3.692 1.909l-0.002 0.002c-0.973 1.008-1.64 2.318-1.847 3.775l-0.004 0.036c-0.071 0.798-0.402 1.507-0.905 2.055l0.002-0.003c-0.749-1.599-1.187-3.472-1.187-5.447 0-0.276 0.009-0.551 0.025-0.823l-0.002 0.037c0.127-2.145 0.779-4.222 1.893-6.039 1.119-1.811 2.63-3.278 4.422-4.314l0.060-0.032c1.712-0.991 3.767-1.577 5.958-1.577v0l-0.012 0.024zM6.082 24.272c0.137-0.13 0.274-0.247 0.411-0.389 0.991-0.997 1.663-2.312 1.849-3.779l0.003-0.032c0.077-0.843 0.442-1.588 0.995-2.147l-0 0c0.524-0.566 1.247-0.941 2.057-1.014l0.012-0.001c1.463-0.228 2.734-0.916 3.692-1.909l0.002-0.002c0.973-1.008 1.64-2.318 1.847-3.775l0.004-0.036c0.051-0.882 0.421-1.669 0.996-2.254l-0 0.001c0.536-0.554 1.266-0.917 2.081-0.979l0.011-0.001c1.346-0.199 2.524-0.806 3.432-1.689l-0.001 0.001c1.071 0.922 1.97 2.006 2.667 3.221l0.032 0.060c-0.044 0.060-0.094 0.116-0.148 0.165-0.524 0.571-1.246 0.953-2.056 1.037l-0.014 0.001c-1.464 0.224-2.738 0.911-3.696 1.905l-0.002 0.002c-0.974 1.009-1.64 2.321-1.843 3.781l-0.004 0.036c-0.084 0.84-0.446 1.583-0.992 2.147l0.001-0.001c-0.537 0.555-1.26 0.927-2.069 1.014l-0.015 0.001c-1.467 0.226-2.745 0.913-3.708 1.906l-0.002 0.002c-0.979 1.008-1.652 2.318-1.866 3.778l-0.005 0.037c-0.066 0.606-0.265 1.155-0.569 1.632l0.009-0.015c-1.204-0.747-2.231-1.643-3.094-2.681l-0.017-0.021zM15.537 28.826c-0.004 0-0.008 0-0.012 0-1.219 0-2.395-0.181-3.503-0.518l0.085 0.022c0.382-0.734 0.63-1.534 0.732-2.359 0.083-0.839 0.444-1.58 0.988-2.144l-0.001 0.001c0.535-0.555 1.256-0.928 2.062-1.017l0.015-0.001c1.465-0.225 2.739-0.912 3.698-1.906l0.002-0.002c0.975-1.009 1.644-2.319 1.852-3.779l0.004-0.037c0.083-0.839 0.444-1.581 0.988-2.145l-0.001 0.001c0.535-0.555 1.256-0.927 2.062-1.017l0.015-0.001c1.113-0.155 2.107-0.574 2.944-1.192l-0.018 0.012c0.482 1.886 0.539 3.86 0.167 5.772-0.397 2.006-1.206 3.776-2.338 5.291l0.024-0.034c-1.141 1.528-2.586 2.764-4.253 3.635l-0.069 0.033c-1.583 0.828-3.455 1.317-5.442 1.327h-0.003v0.059z"></path>
</svg>
