<!-- Generated by IcoMoon.io -->
<svg version="1.1" xmlns="http://www.w3.org/2000/svg" width="32" height="32" viewBox="0 0 32 32">
<title>phone</title>
<path fill="#c40b0b" d="M5.333 4c-0.733 0-1.333 0.6-1.333 1.333 0 12.52 10.147 22.667 22.667 22.667 0.733 0 1.333-0.6 1.333-1.333v-4.653c0-0.733-0.6-1.333-1.333-1.333-1.653 0-3.267-0.267-4.76-0.76-0.133-0.053-0.28-0.067-0.413-0.067-0.347 0-0.68 0.133-0.947 0.387l-2.933 2.933c-3.773-1.933-6.867-5.013-8.787-8.787l2.933-2.933c0.373-0.373 0.48-0.893 0.333-1.36-0.493-1.493-0.76-3.093-0.76-4.76 0-0.733-0.6-1.333-1.333-1.333h-4.667zM8.72 6.667c0.080 1.187 0.28 2.347 0.6 3.453l-1.6 1.6c-0.547-1.6-0.893-3.293-1.013-5.053h2.013zM21.867 22.693c1.133 0.32 2.293 0.52 3.467 0.6v1.987c-1.76-0.12-3.453-0.467-5.067-1l1.6-1.587z"></path>
</svg>
