<!-- Generated by IcoMoon.io -->
<svg version="1.1" xmlns="http://www.w3.org/2000/svg" width="32" height="32" viewBox="0 0 32 32">
<title>place</title>
<path fill="#c40b0b" d="M16 2.666c-0.002 0-0.005 0-0.008 0-5.151 0-9.326 4.175-9.326 9.326 0 0.003 0 0.006 0 0.008v-0c0 7 9.334 17.334 9.334 17.334s9.334-10.334 9.334-17.334c0-0.002 0-0.005 0-0.008 0-5.151-4.175-9.326-9.326-9.326-0.003 0-0.006 0-0.008 0h0zM9.334 12c0.128-3.583 3.063-6.439 6.666-6.439s6.538 2.856 6.666 6.427l0 0.012c0 3.84-3.84 9.586-6.666 13.174-2.774-3.56-6.666-9.374-6.666-13.174zM12.666 12c0-1.841 1.493-3.334 3.334-3.334s3.334 1.493 3.334 3.334v0c0 1.841-1.493 3.334-3.334 3.334s-3.334-1.493-3.334-3.334v0z"></path>
</svg>
