<!-- Generated by IcoMoon.io -->
<svg version="1.1" xmlns="http://www.w3.org/2000/svg" width="32" height="32" viewBox="0 0 32 32">
<title>search</title>
<path fill="#4b4b4b" d="M19.953 19.007h1.053l6.653 6.667-1.987 1.987-6.667-6.653v-1.053l-0.36-0.373c-1.502 1.301-3.475 2.093-5.634 2.093-0.002 0-0.004 0-0.006 0h0c-4.786 0-8.667-3.88-8.667-8.667s3.88-8.667 8.667-8.667c4.786 0 8.667 3.88 8.667 8.667v0c0 2.147-0.787 4.12-2.093 5.64l0.373 0.36zM7.007 13.007c0 3.32 2.68 6 6 6s6-2.68 6-6-2.68-6-6-6-6 2.68-6 6z"></path>
</svg>
