<!-- Generated by IcoMoon.io -->
<svg version="1.1" xmlns="http://www.w3.org/2000/svg" width="32" height="32" viewBox="0 0 32 32">
<title>shopping_cart</title>
<path fill="#4b4b4b" d="M24.395 15.96c-0.453 0.827-1.333 1.373-2.333 1.373h-9.933l-1.467 2.667h16v2.667h-16c-2.027 0-3.307-2.173-2.333-3.96l1.8-3.253-4.8-10.12h-2.667v-2.667h4.36l1.253 2.667h19.733c1.013 0 1.653 1.093 1.16 1.973l-4.773 8.653zM25.741 8h-16.2l3.16 6.667h9.36l3.68-6.667zM10.661 24c-1.467 0-2.653 1.2-2.653 2.667s1.187 2.667 2.653 2.667 2.667-1.2 2.667-2.667-1.2-2.667-2.667-2.667zM21.341 26.667c0-1.467 1.187-2.667 2.653-2.667s2.667 1.2 2.667 2.667-1.2 2.667-2.667 2.667-2.653-1.2-2.653-2.667z"></path>
</svg>
