<!-- Generated by IcoMoon.io -->
<svg version="1.1" xmlns="http://www.w3.org/2000/svg" width="32" height="32" viewBox="0 0 32 32">
<title>timer</title>
<path fill="#c40b0b" d="M13.334 2c-0.734 0-1.334 0.6-1.334 1.334v0c0.003 0.735 0.6 1.331 1.336 1.332h5.332c0.734 0 1.334-0.6 1.334-1.332 0-0.734-0.6-1.334-1.334-1.334h-5.332zM17.336 18v-5.334c0-0.732-0.6-1.332-1.334-1.332s-1.334 0.6-1.334 1.332v5.334c0.002 0.736 0.598 1.331 1.334 1.334 0.734 0 1.334-0.6 1.334-1.334zM25.374 10.52l-0.018-0.023c1.654 2.056 2.643 4.668 2.643 7.511 0 6.623-5.369 11.992-11.992 11.992-0.003 0-0.005 0-0.007 0h0c-0.002 0-0.004 0-0.007 0-6.626 0-11.998-5.372-11.998-11.998 0-0.113 0.002-0.226 0.004-0.322 0.16-6.4 5.6-11.68 12-11.68h-0c0.002 0 0.003 0 0.005 0 2.847 0 5.461 0.996 7.491 2.64l1-1c0.239-0.238 0.569-0.385 0.933-0.385s0.694 0.147 0.933 0.385l0.014 0.014c0.238 0.239 0.385 0.569 0.385 0.933s-0.147 0.694-0.385 0.933l-1 1zM6.668 18c0 0.002 0 0.005 0 0.008 0 5.151 4.175 9.326 9.326 9.326 0.003 0 0.006 0 0.008 0h-0c0.002 0 0.005 0 0.008 0 5.151 0 9.326-4.175 9.326-9.326 0-0.003 0-0.006 0-0.008v0c0-0.002 0-0.005 0-0.008 0-5.151-4.175-9.326-9.326-9.326-0.003 0-0.007 0-0.011 0h0.001c-0.002 0-0.004 0-0.006 0-5.151 0-9.326 4.175-9.326 9.326 0 0.003 0 0.006 0 0.008v-0z"></path>
</svg>
